<svg xmlns="http://www.w3.org/2000/svg" viewBox="0 0 64 64"><defs><style>.ad5ee6d6-f9fd-49ca-bab5-d014cfce6984{fill:#ba4922;}.b59579da-d434-4fb9-94d3-dd993d301ed5{fill:#b7f5f0;}.a4137d44-6ed1-4f24-a377-694cb61d6ddc{fill:#f2c488;}.b4805fe3-e729-47f4-a888-74e0fe37da7f{fill:#f67263;}.beccb39b-c54e-48a2-a8c8-ea4c152396b7{fill:#23bad5;}.bfcca9b4-98d8-4e13-9d6c-cfef58b20ae0{fill:#e3a441;}.aeb30909-108c-4fd9-9c0c-377451146157{fill:#e47a46;}.adcf2644-ca70-4605-bdaf-060075d6a2ad{fill:#5b1610;}</style></defs><g id="b3d4fc6b-9801-4a3e-89fd-c1ea3cffc9b9" data-name="Icon"><path class="ad5ee6d6-f9fd-49ca-bab5-d014cfce6984" d="M39.7,32.36a1,1,0,0,1-.15-1.99c.323-.078,1.632-.628,3.151-4.432a1,1,0,0,1,1.858.743c-1.708,4.276-3.485,5.439-4.674,5.662A1.052,1.052,0,0,1,39.7,32.36Z" id="id_132" style="fill: rgb(250, 91, 221);"></path><path class="ad5ee6d6-f9fd-49ca-bab5-d014cfce6984" d="M44.07,34.57a1,1,0,0,1-.306-1.952c.649-.209,2.9-1.225,4.628-5.54a1,1,0,1,1,1.857.744c-2,4.983-4.771,6.346-5.872,6.7A.993.993,0,0,1,44.07,34.57Z" id="id_133" style="fill: rgb(250, 91, 221);"></path><path class="ad5ee6d6-f9fd-49ca-bab5-d014cfce6984" d="M48.332,36.92a1,1,0,0,1-.538-1.845,18.213,18.213,0,0,0,6.277-8,1,1,0,1,1,1.858.74,19.929,19.929,0,0,1-7.065,8.946A1,1,0,0,1,48.332,36.92Z" id="id_134" style="fill: rgb(250, 91, 221);"></path><path class="ad5ee6d6-f9fd-49ca-bab5-d014cfce6984" d="M37.32,31.53a1,1,0,0,1-.632-1.782A13.707,13.707,0,0,0,37.3,28.21c.221-.607.493-1.358.854-2.27a1,1,0,0,1,1.86.739c-.353.888-.618,1.621-.833,2.213a5.559,5.559,0,0,1-1.212,2.4A1,1,0,0,1,37.32,31.53Z" id="id_135" style="fill: rgb(250, 91, 221);"></path><path class="b59579da-d434-4fb9-94d3-dd993d301ed5" d="M22.03,42.23a9.116,9.116,0,0,0,8.54,9.09c-6.52-.16-12.34-3.19-16.28-5.9,2.39-2.56,2.85-5.23.54-8.03v-.01a35.62,35.62,0,0,1,13.53-3.81A9.09,9.09,0,0,0,22.03,42.23Z" id="id_136" style="fill: rgb(247, 242, 246);"></path><path class="b59579da-d434-4fb9-94d3-dd993d301ed5" d="M53.22,41.06l.03.03s-9.6,9.93-21.56,10.23a9.1,9.1,0,0,0,2.2-17.75A35.912,35.912,0,0,1,53.22,41.06Z" id="id_137" style="fill: rgb(255, 250, 254);"></path><path class="ad5ee6d6-f9fd-49ca-bab5-d014cfce6984" d="M31.13,37.11a5.12,5.12,0,1,1-5.12,5.12A5.115,5.115,0,0,1,31.13,37.11Z" id="id_138" style="fill: rgb(250, 245, 249);"></path><path class="a4137d44-6ed1-4f24-a377-694cb61d6ddc" d="M14.83,37.38a35.613,35.613,0,0,0-5.8,3.68c.59-.68,10.26-11.47,22.1-11.47a22.923,22.923,0,0,1,8.56,1.77h.01a31.338,31.338,0,0,1,4.37,2.21,41.548,41.548,0,0,1,9.15,7.49,35.912,35.912,0,0,0-19.33-7.49,34.035,34.035,0,0,0-5.53,0A35.62,35.62,0,0,0,14.83,37.38Z" id="id_139" style="fill: rgb(252, 252, 252);"></path><path class="b4805fe3-e729-47f4-a888-74e0fe37da7f" d="M14.83,37.39c2.31,2.8,1.85,5.47-.54,8.03A37.831,37.831,0,0,1,9,41.09l.03-.03a35.613,35.613,0,0,1,5.8-3.68Z" id="id_140" style="fill: rgb(247, 247, 247);"></path><path class="beccb39b-c54e-48a2-a8c8-ea4c152396b7" d="M31.64,51.32c-.17.01-.34.01-.51.01s-.34,0-.51-.01h-.05a9.1,9.1,0,0,1-2.21-17.75,34.035,34.035,0,0,1,5.53,0,9.1,9.1,0,0,1-2.2,17.75Zm4.6-9.09a5.115,5.115,0,1,0-5.11,5.12A5.115,5.115,0,0,0,36.24,42.23Z" id="id_141" style="fill: rgb(250, 247, 249);"></path><path class="bfcca9b4-98d8-4e13-9d6c-cfef58b20ae0" d="M49.315,20.493a1,1,0,0,1-1-1V14.945a1,1,0,1,1,2,0v4.548A1,1,0,0,1,49.315,20.493Z" id="id_142" style="fill: rgb(250, 91, 221);"></path><path class="bfcca9b4-98d8-4e13-9d6c-cfef58b20ae0" d="M44.768,21.63a1,1,0,0,1-1-1V13.809a1,1,0,1,1,2,0V20.63A1,1,0,0,1,44.768,21.63Z" id="id_143"></path><path class="bfcca9b4-98d8-4e13-9d6c-cfef58b20ae0" d="M40.221,22.767a1,1,0,0,1-1-1V12.672a1,1,0,0,1,2,0v9.095A1,1,0,0,1,40.221,22.767Z" id="id_144"></path><path class="bfcca9b4-98d8-4e13-9d6c-cfef58b20ae0" d="M35.673,21.63a1,1,0,0,1-1-1V13.809a1,1,0,1,1,2,0V20.63A1,1,0,0,1,35.673,21.63Z" id="id_145"></path><path class="bfcca9b4-98d8-4e13-9d6c-cfef58b20ae0" d="M49.315,18.219H24.3a1,1,0,1,1,0-2H49.315a1,1,0,0,1,0,2Z" id="id_146"></path><path class="aeb30909-108c-4fd9-9c0c-377451146157" d="M22.3,22.63l-10.779-2a2,2,0,0,1-2-2V15.808a2,2,0,0,1,2-2l10.779-2a2,2,0,0,1,2,2V20.63A2,2,0,0,1,22.3,22.63Z" id="id_147" style="fill: rgb(250, 240, 248);"></path></g><g id="f183f0ca-9051-4034-871a-c9bcd43215a6" data-name="Layer 4"><path class="adcf2644-ca70-4605-bdaf-060075d6a2ad" d="M31.125,52.325c-12.5,0-22.427-10.105-22.844-10.536a1,1,0,0,1-.039-1.348c.417-.484,10.35-11.853,22.883-11.853S53.592,39.957,54.009,40.441a1,1,0,0,1-.039,1.348C53.553,42.22,43.625,52.325,31.125,52.325ZM10.4,41.052c2.406,2.213,10.858,9.273,20.723,9.273s18.318-7.06,20.724-9.273C49.5,38.611,41.017,30.588,31.125,30.588S12.753,38.611,10.4,41.052Z" id="id_148" style="fill: rgb(250, 91, 221);"></path><path class="adcf2644-ca70-4605-bdaf-060075d6a2ad" d="M53.25,42.094a1,1,0,0,1-.614-.212,34.89,34.89,0,0,0-43.021,0,1,1,0,1,1-1.23-1.576,36.886,36.886,0,0,1,45.481,0,1,1,0,0,1-.616,1.788Z" id="id_149" style="fill: rgb(250, 91, 221);"></path><path class="adcf2644-ca70-4605-bdaf-060075d6a2ad" d="M39.7,32.36a1,1,0,0,1-.15-1.99c.323-.078,1.632-.628,3.151-4.432a1,1,0,0,1,1.858.743c-1.708,4.276-3.485,5.439-4.674,5.662A1.052,1.052,0,0,1,39.7,32.36Z" id="id_150" style="fill: rgb(250, 91, 221);"></path><path class="adcf2644-ca70-4605-bdaf-060075d6a2ad" d="M37.32,31.53a1,1,0,0,1-.632-1.782A13.707,13.707,0,0,0,37.3,28.21c.221-.607.493-1.358.854-2.27a1,1,0,0,1,1.86.739c-.353.888-.618,1.621-.833,2.213a5.559,5.559,0,0,1-1.212,2.4A1,1,0,0,1,37.32,31.53Z" id="id_151" style="fill: rgb(250, 91, 221);"></path><path class="adcf2644-ca70-4605-bdaf-060075d6a2ad" d="M44.07,34.57a1,1,0,0,1-.306-1.952c.649-.209,2.9-1.225,4.628-5.54a1,1,0,1,1,1.857.744c-2,4.983-4.771,6.346-5.872,6.7A.993.993,0,0,1,44.07,34.57Z" id="id_152" style="fill: rgb(250, 91, 221);"></path><path class="adcf2644-ca70-4605-bdaf-060075d6a2ad" d="M48.328,36.92a1,1,0,0,1-.538-1.844,18.274,18.274,0,0,0,6.281-8,1,1,0,1,1,1.858.742,19.963,19.963,0,0,1-7.068,8.943A.992.992,0,0,1,48.328,36.92Z" id="id_153" style="fill: rgb(250, 91, 221);"></path><path class="adcf2644-ca70-4605-bdaf-060075d6a2ad" d="M31.13,52.328c-.19,0-.378,0-.567-.012a10.1,10.1,0,0,1-2.506-19.7,1,1,0,0,1,.607,1.906,8.1,8.1,0,0,0,2.013,15.8c.151.009.3.008.453.008s.3,0,.452-.008a8.1,8.1,0,0,0,2-15.8,1,1,0,0,1,.607-1.906,10.1,10.1,0,0,1-2.5,19.7C31.508,52.327,31.319,52.328,31.13,52.328Z" id="id_154" style="fill: rgb(250, 91, 221);"></path><path class="adcf2644-ca70-4605-bdaf-060075d6a2ad" d="M31.125,48.347a6.117,6.117,0,1,1,6.116-6.117A6.123,6.123,0,0,1,31.125,48.347Zm0-10.233a4.117,4.117,0,1,0,4.116,4.116A4.12,4.12,0,0,0,31.125,38.114Z" id="id_155" style="fill: rgb(250, 91, 221);"></path><path class="adcf2644-ca70-4605-bdaf-060075d6a2ad" d="M14.29,46.419a1,1,0,0,1-.731-1.683c2.215-2.374,2.37-4.444.5-6.711A1,1,0,1,1,15.6,36.752c1.743,2.113,3.057,5.451-.581,9.35A1,1,0,0,1,14.29,46.419Z" id="id_156" style="fill: rgb(250, 91, 221);"></path><path class="adcf2644-ca70-4605-bdaf-060075d6a2ad" d="M49.315,20.493a1,1,0,0,1-1-1V14.945a1,1,0,1,1,2,0v4.548A1,1,0,0,1,49.315,20.493Z" id="id_157" style="fill: rgb(250, 91, 221);"></path><path class="adcf2644-ca70-4605-bdaf-060075d6a2ad" d="M44.768,21.63a1,1,0,0,1-1-1V13.809a1,1,0,1,1,2,0V20.63A1,1,0,0,1,44.768,21.63Z" id="id_158" style="fill: rgb(250, 91, 221);"></path><path class="adcf2644-ca70-4605-bdaf-060075d6a2ad" d="M40.221,22.767a1,1,0,0,1-1-1V12.672a1,1,0,0,1,2,0v9.095A1,1,0,0,1,40.221,22.767Z" id="id_159" style="fill: rgb(250, 91, 221);"></path><path class="adcf2644-ca70-4605-bdaf-060075d6a2ad" d="M35.673,21.63a1,1,0,0,1-1-1V13.809a1,1,0,1,1,2,0V20.63A1,1,0,0,1,35.673,21.63Z" id="id_160" style="fill: rgb(250, 91, 221);"></path><path class="adcf2644-ca70-4605-bdaf-060075d6a2ad" d="M49.315,18.219H24.3a1,1,0,1,1,0-2H49.315a1,1,0,0,1,0,2Z" id="id_161" style="fill: rgb(250, 91, 221);"></path><path class="adcf2644-ca70-4605-bdaf-060075d6a2ad" d="M22.3,23.63a1.021,1.021,0,0,1-.183-.017l-10.7-1.985a3,3,0,0,1-2.9-3V15.809a3,3,0,0,1,2.9-3l10.7-1.986a1.02,1.02,0,0,1,.183-.016,3,3,0,0,1,3,3V20.63A3,3,0,0,1,22.3,23.63Zm.076-10.818-10.673,1.98a1.021,1.021,0,0,1-.183.017,1,1,0,0,0-1,1V18.63a1,1,0,0,0,1,1,1.121,1.121,0,0,1,.183.016L22.38,21.627a1,1,0,0,0,.924-1V13.809A1,1,0,0,0,22.38,12.812Z" id="id_162" style="fill: rgb(250, 91, 221);"></path></g></svg>