<svg width="224" height="224" viewBox="0 0 224 224" fill="none" xmlns="http://www.w3.org/2000/svg">
<path d="M90.2861 190.788C90.2861 192.203 91.4323 193.349 92.8464 193.349C94.2605 193.349 95.4067 192.203 95.4067 190.788V93.0432C95.4067 87.5674 94.0358 82.3891 91.6205 77.8358C89.1139 73.1107 85.4832 69.0653 81.0941 66.0653C79.9286 65.2704 78.3389 65.5699 77.544 66.7354C76.7491 67.9008 77.0486 69.4906 78.2141 70.2854C81.9226 72.8198 84.9878 76.2336 87.0998 80.2157C89.1322 84.047 90.2861 88.415 90.2861 93.0432V190.788ZM47.2723 70.2854C48.4378 69.4906 48.7373 67.9008 47.9424 66.7354C47.1475 65.5699 45.5578 65.2704 44.3923 66.0653C40.0032 69.0653 36.3725 73.1107 33.8659 77.8358C31.4506 82.3891 30.0797 87.5674 30.0797 93.0432V190.788C30.0797 192.203 31.2259 193.349 32.64 193.349C34.0541 193.349 35.2003 192.203 35.2003 190.788V93.0432C35.2003 88.415 36.3542 84.047 38.3866 80.2157C40.4995 76.2336 43.5648 72.8198 47.2723 70.2854Z" fill="#fa5bdd" id="id_101"></path>
<path d="M62.7418 30.6509H62.7437C68.1005 30.6509 72.9686 32.8406 76.4957 36.3686C80.0227 39.8957 82.2134 44.7638 82.2134 50.1206V79.1107C82.2134 84.4675 80.0237 89.3357 76.4957 92.8627C72.9686 96.3898 68.0995 98.5805 62.7437 98.5805H62.7418C57.385 98.5805 52.5168 96.3907 48.9898 92.8627C45.4618 89.3357 43.272 84.4666 43.272 79.1107V50.1206C43.272 44.7638 45.4618 39.8966 48.9898 36.3686C52.5168 32.8406 57.3859 30.6509 62.7418 30.6509ZM62.7437 35.7715H62.7418C58.799 35.7715 55.2115 37.3872 52.6099 39.9888C50.0083 42.5904 48.3926 46.177 48.3926 50.1206V79.1107C48.3926 83.0534 50.0083 86.641 52.6099 89.2426C55.2115 91.8442 58.799 93.4598 62.7418 93.4598H62.7437C66.6864 93.4598 70.2739 91.8442 72.8755 89.2426C75.4771 86.641 77.0928 83.0534 77.0928 79.1107V50.1206C77.0928 46.1779 75.4771 42.5904 72.8755 39.9888C70.2739 37.3872 66.6864 35.7715 62.7437 35.7715Z" fill="#fa5bdd" id="id_102"></path>
<path d="M50.8502 171.498C49.4362 171.498 48.2899 172.644 48.2899 174.059C48.2899 175.473 49.4362 176.619 50.8502 176.619H75.3782C76.7923 176.619 77.9386 175.473 77.9386 174.059C77.9386 172.644 76.7923 171.498 75.3782 171.498H50.8502Z" fill="#fa5bdd" id="id_103"></path>
<path d="M42.8563 188.228C41.4422 188.228 40.296 189.374 40.296 190.788C40.296 192.203 41.4422 193.349 42.8563 193.349H83.3731C84.7872 193.349 85.9334 192.203 85.9334 190.788C85.9334 189.374 84.7872 188.228 83.3731 188.228H42.8563Z" fill="#fa5bdd" id="id_104"></path>
<path d="M131.625 190.788C131.625 192.203 132.771 193.349 134.185 193.349C135.599 193.349 136.745 192.203 136.745 190.788V123.674C136.745 119.781 135.77 116.098 134.052 112.859C132.269 109.499 129.687 106.622 126.567 104.49C125.402 103.695 123.812 103.995 123.017 105.16C122.222 106.326 122.522 107.916 123.687 108.71C126.127 110.377 128.143 112.621 129.531 115.238C130.866 117.756 131.625 120.628 131.625 123.674V190.788ZM103.345 108.71C104.51 107.916 104.81 106.326 104.015 105.16C103.22 103.995 101.63 103.695 100.465 104.49C97.345 106.621 94.7626 109.499 92.9798 112.86C91.2614 116.099 90.2861 119.782 90.2861 123.674V190.788C90.2861 192.203 91.4323 193.349 92.8464 193.349C94.2605 193.349 95.4067 192.203 95.4067 190.788V123.674C95.4067 120.629 96.1651 117.757 97.5005 115.239C98.8896 112.621 100.907 110.377 103.346 108.71H103.345Z" fill="#fa5bdd" id="id_105"></path>
<path d="M117.407 85.1386L115.715 86.5344L118.766 89.5862L119.262 88.9853C119.348 88.8595 119.444 88.7434 119.55 88.6358L121.377 86.4211L121.371 86.4125C122.27 85.3219 123.884 85.1664 124.975 86.0659C125.252 86.2954 125.47 86.5709 125.624 86.8723C126.264 87.9245 126.772 89.0707 127.124 90.2861C127.49 91.5523 127.687 92.8685 127.687 94.201V114.107C127.687 118.007 126.093 121.55 123.527 124.116C120.96 126.684 117.417 128.276 113.517 128.276C105.719 128.276 99.3446 121.903 99.3446 114.106V94.2C99.3446 90.3283 101.447 86.9866 104.493 84.5645C107.7 82.0147 112.032 80.4672 115.956 80.4672C117.371 80.4672 118.517 81.6134 118.517 83.0275C118.517 83.903 118.078 84.6758 117.407 85.1376V85.1386ZM110.133 88.1933C110.067 88.129 110.004 88.0608 109.945 87.9888C109.775 87.7824 109.643 87.5587 109.548 87.3235C108.884 87.6883 108.254 88.105 107.674 88.5667C105.776 90.0758 104.466 92.0477 104.466 94.2019V114.108C104.466 119.091 108.544 123.157 113.519 123.157C116.006 123.157 118.268 122.139 119.909 120.498C121.549 118.858 122.568 116.595 122.568 114.108V94.2029C122.568 93.817 122.546 93.4416 122.502 93.0758L121.053 94.8317C120.966 94.9594 120.865 95.0803 120.752 95.1936C119.752 96.193 118.131 96.193 117.132 95.1936L110.133 88.1942V88.1933Z" fill="#fa5bdd" id="id_106"></path>
<path d="M105.35 176.742C103.936 176.742 102.79 177.888 102.79 179.302C102.79 180.716 103.936 181.862 105.35 181.862H122.193C123.607 181.862 124.753 180.716 124.753 179.302C124.753 177.888 123.607 176.742 122.193 176.742H105.35Z" fill="#fa5bdd" id="id_107"></path>
<path d="M99.8621 188.228C98.448 188.228 97.3018 189.374 97.3018 190.788C97.3018 192.203 98.448 193.349 99.8621 193.349H127.681C129.095 193.349 130.241 192.203 130.241 190.788C130.241 189.374 129.095 188.228 127.681 188.228H99.8621Z" fill="#fa5bdd" id="id_108"></path>
<path d="M180.975 153.689C187.897 162.298 192.956 170.329 193.793 177.055C194.739 184.659 190.873 190.41 179.49 193.267L179.491 193.271C179.269 193.327 179.048 193.352 178.83 193.348H162.427C162.155 193.348 161.892 193.305 161.646 193.226C150.388 190.355 146.56 184.622 147.502 177.054C148.343 170.29 153.455 162.205 160.437 153.541L160.433 153.535C160.938 152.908 161.679 152.581 162.426 152.581H178.867C179.742 152.581 180.513 153.019 180.975 153.688V153.689ZM188.712 177.675C188.036 172.239 183.686 165.315 177.645 157.703H163.648C157.607 165.315 153.257 172.239 152.581 177.675C151.989 182.436 154.754 186.149 162.734 188.228H178.56C186.54 186.149 189.305 182.437 188.713 177.675H188.712Z" fill="#fa5bdd" id="id_109"></path>
<path d="M165.152 152.582H176.146V141.434C176.146 138.885 174.85 130.71 172.876 124.655C171.884 121.613 171.002 119.277 170.65 119.277H170.646C170.294 119.277 169.412 121.612 168.42 124.654C166.447 130.71 165.151 138.887 165.151 141.434V152.582H165.152ZM178.706 157.703H162.591C161.177 157.703 160.031 156.557 160.031 155.143V141.434C160.031 138.592 161.43 129.612 163.561 123.075C165.205 118.03 167.54 114.157 170.647 114.157H170.651C173.757 114.157 176.093 118.029 177.736 123.076C179.867 129.612 181.265 138.59 181.265 141.435V155.144C181.265 156.558 180.119 157.704 178.705 157.704L178.706 157.703Z" fill="#fa5bdd" id="id_110"></path>
<path d="M161.326 43.8653C161.361 43.8979 161.395 43.9325 161.428 43.967C163.682 46.247 164.81 49.2365 164.81 52.223C164.81 55.2307 163.667 58.2413 161.381 60.527L151.025 70.8826C150.026 71.8819 148.404 71.8819 147.404 70.8826L147.373 70.8509L134.417 57.8947C133.418 56.8954 133.418 55.2739 134.417 54.2736L134.449 54.2429L144.774 43.9181C147.06 41.6333 150.07 40.489 153.077 40.489C156.06 40.489 159.047 41.615 161.326 43.8643V43.8653ZM159.689 52.223C159.689 50.5373 159.057 48.8525 157.791 47.5699L157.76 47.5392C156.474 46.2538 154.776 45.6106 153.077 45.6106C151.378 45.6106 149.679 46.2538 148.394 47.5392L139.848 56.0851L149.216 65.4528L157.762 56.9069C159.047 55.6214 159.69 53.9232 159.69 52.223H159.689Z" fill="#fa5bdd" id="id_111"></path>
<path d="M144.532 64.3891C145.531 63.3898 145.531 61.7683 144.532 60.769C143.532 59.7696 141.911 59.7696 140.912 60.769L122.132 79.5485C121.133 80.5478 121.133 82.1693 122.132 83.1686C123.132 84.168 124.753 84.168 125.752 83.1686L144.532 64.3891Z" fill="#fa5bdd" id="id_112"></path>
<path d="M123.069 76.8643L128.447 82.2422C129.441 83.2358 129.446 84.8438 128.464 85.8442L120.911 95.0016L120.916 95.0102C120.016 96.1008 118.403 96.2554 117.312 95.3558C117.239 95.2963 117.172 95.233 117.108 95.1677L110.108 88.1683C109.109 87.169 109.109 85.5475 110.108 84.5472C110.221 84.4339 110.343 84.3331 110.471 84.2458L119.626 76.6954L119.62 76.6877C120.651 75.8371 122.149 75.9302 123.07 76.8634L123.069 76.8643ZM123.188 84.2246L121.076 82.1117L115.714 86.5344L118.765 89.5862L123.188 84.2246Z" fill="#fa5bdd" id="id_113"></path>
</svg>